<svg xmlns="http://www.w3.org/2000/svg" width="420" height="420" viewBox="0 0 420 420">
  <g stroke="#6ab4ff" stroke-width="1" stroke-opacity="0.14">
    <line x1="30" y1="40" x2="95" y2="70"/>
    <line x1="95" y1="70" x2="160" y2="30"/>
    <line x1="210" y1="90" x2="275" y2="50"/>
    <line x1="340" y1="80" x2="390" y2="40"/>
    <line x1="120" y1="170" x2="185" y2="150"/>
    <line x1="185" y1="150" x2="250" y2="190"/>
    <line x1="210" y1="90" x2="185" y2="150"/>
    <line x1="175" y1="250" x2="240" y2="300"/>
    <line x1="300" y1="260" x2="360" y2="310"/>
    <line x1="175" y1="250" x2="110" y2="280"/>
    <line x1="70" y1="350" x2="150" y2="380"/>
    <line x1="290" y1="390" x2="370" y2="370"/>
  </g>
  <g fill="#b06bff" fill-opacity="0.5" stroke="none">
    <polygon points="300,108 312,132 288,132"/>
    <polygon points="90,200 100,220 80,220"/>
    <polygon points="250,320 260,340 240,340"/>
  </g>
  <g>
    <circle cx="30"  cy="40"  r="2.4" fill="#6ab4ff" opacity=".7"/>
    <circle cx="95"  cy="70"  r="1.6" fill="#b06bff" opacity=".5"/>
    <circle cx="160" cy="30"  r="2"   fill="#62e3ff" opacity=".6"/>
    <circle cx="210" cy="90"  r="3"   fill="#cdd6f4" opacity=".85"/>
    <circle cx="275" cy="50"  r="1.4" fill="#6ab4ff" opacity=".45"/>
    <circle cx="340" cy="80"  r="2.2" fill="#b06bff" opacity=".65"/>
    <circle cx="390" cy="40"  r="1.6" fill="#62e3ff" opacity=".5"/>
    <circle cx="50"  cy="140" r="1.8" fill="#cdd6f4" opacity=".55"/>
    <circle cx="120" cy="170" r="2.6" fill="#6ab4ff" opacity=".75"/>
    <circle cx="185" cy="150" r="1.4" fill="#b06bff" opacity=".45"/>
    <circle cx="250" cy="190" r="2"   fill="#62e3ff" opacity=".6"/>
    <circle cx="320" cy="160" r="1.6" fill="#cdd6f4" opacity=".5"/>
    <circle cx="385" cy="200" r="2.4" fill="#6ab4ff" opacity=".7"/>
    <circle cx="40"  cy="240" r="2"   fill="#b06bff" opacity=".6"/>
    <circle cx="110" cy="280" r="1.6" fill="#62e3ff" opacity=".5"/>
    <circle cx="175" cy="250" r="2.8" fill="#cdd6f4" opacity=".8"/>
    <circle cx="240" cy="300" r="1.4" fill="#6ab4ff" opacity=".45"/>
    <circle cx="300" cy="260" r="2"   fill="#b06bff" opacity=".6"/>
    <circle cx="360" cy="310" r="1.6" fill="#62e3ff" opacity=".5"/>
    <circle cx="70"  cy="350" r="2.2" fill="#cdd6f4" opacity=".65"/>
    <circle cx="150" cy="380" r="1.8" fill="#6ab4ff" opacity=".55"/>
    <circle cx="220" cy="360" r="1.4" fill="#b06bff" opacity=".45"/>
    <circle cx="290" cy="390" r="2"   fill="#62e3ff" opacity=".6"/>
    <circle cx="370" cy="370" r="2.6" fill="#cdd6f4" opacity=".75"/>
  </g>
</svg>
